<svg width="18" height="14" viewBox="0 0 18 14" fill="none" xmlns="http://www.w3.org/2000/svg">
<path d="M1.02352 6.70562C2.68936 5.78805 4.54889 5.0222 6.28634 4.25245C9.27542 2.99167 12.2764 1.75274 15.3076 0.599314C15.8974 0.402793 16.9571 0.21063 17.061 1.0846C17.0041 2.32175 16.77 3.55166 16.6095 4.78156C16.202 7.48624 15.731 10.1817 15.2717 12.8774C15.1135 13.7754 13.9886 14.2402 13.2689 13.6656C11.5392 12.4972 9.79613 11.3402 8.08849 10.1447C7.52911 9.57633 8.04783 8.76007 8.5474 8.35418C9.97206 6.95018 11.4829 5.75733 12.8331 4.28078C13.1973 3.40129 12.1212 4.14249 11.7662 4.36962C9.81588 5.71364 7.91325 7.13973 5.85696 8.32095C4.8066 8.89913 3.5824 8.40503 2.53252 8.08241C1.59119 7.69266 0.211765 7.29998 1.02343 6.70573L1.02352 6.70562Z" fill="white"/>
</svg>
