<svg width="19" height="19" viewBox="0 0 19 19" fill="none" xmlns="http://www.w3.org/2000/svg">
<path d="M18.2818 5.5125C18.2402 4.57096 18.088 3.92366 17.8699 3.36277C17.6449 2.76739 17.2987 2.23435 16.8452 1.79124C16.4021 1.34122 15.8655 0.991546 15.277 0.770055C14.7129 0.551945 14.069 0.399687 13.1274 0.358175C12.1789 0.313146 11.8777 0.302734 9.47189 0.302734C7.06606 0.302734 6.76492 0.313146 5.81987 0.354659C4.87833 0.396171 4.23103 0.548565 3.67027 0.766539C3.07476 0.991546 2.54173 1.33771 2.09861 1.79124C1.6486 2.23435 1.29905 2.77091 1.07743 3.35939C0.859318 3.92366 0.70706 4.56744 0.665548 5.50898C0.620519 6.45755 0.610107 6.75868 0.610107 9.16452C0.610107 11.5704 0.620519 11.8715 0.662032 12.8165C0.703545 13.7581 0.855938 14.4054 1.07405 14.9663C1.29905 15.5616 1.6486 16.0947 2.09861 16.5378C2.54173 16.9878 3.07828 17.3375 3.66676 17.559C4.23103 17.7771 4.87481 17.9294 5.81649 17.9709C6.76141 18.0125 7.06268 18.0228 9.46851 18.0228C11.8743 18.0228 12.1755 18.0125 13.1205 17.9709C14.0621 17.9294 14.7094 17.7771 15.2701 17.559C16.461 17.0986 17.4026 16.157 17.863 14.9663C18.081 14.402 18.2333 13.7581 18.2749 12.8165C18.3164 11.8715 18.3268 11.5704 18.3268 9.16452C18.3268 6.75868 18.3233 6.45755 18.2818 5.5125ZM16.686 12.7473C16.6479 13.6127 16.5025 14.08 16.3814 14.3916C16.0836 15.1636 15.4709 15.7762 14.699 16.074C14.3874 16.1952 13.9167 16.3405 13.0547 16.3785C12.12 16.4202 11.8397 16.4304 9.47541 16.4304C7.11109 16.4304 6.82726 16.4202 5.896 16.3785C5.03059 16.3405 4.56327 16.1952 4.25172 16.074C3.86756 15.932 3.51788 15.707 3.23405 15.4128C2.93981 15.1254 2.71481 14.7793 2.57283 14.3951C2.45167 14.0836 2.30631 13.6127 2.26831 12.7508C2.22666 11.8162 2.21639 11.5357 2.21639 9.17142C2.21639 6.80709 2.22666 6.52327 2.26831 5.59214C2.30631 4.72673 2.45167 4.25941 2.57283 3.94786C2.71481 3.56357 2.93982 3.21402 3.23757 2.93006C3.52478 2.63582 3.87094 2.41082 4.25524 2.26897C4.56678 2.14781 5.03762 2.00245 5.89951 1.96432C6.83415 1.92281 7.1146 1.91239 9.47879 1.91239C11.8466 1.91239 12.1269 1.92281 13.0582 1.96432C13.9236 2.00245 14.3909 2.14781 14.7025 2.26897C15.0866 2.41082 15.4363 2.63582 15.7201 2.93006C16.0144 3.2174 16.2394 3.56357 16.3814 3.94786C16.5025 4.25941 16.6479 4.73011 16.686 5.59214C16.7275 6.52678 16.7379 6.80709 16.7379 9.17142C16.7379 11.5357 16.7275 11.8127 16.686 12.7473Z" fill="white"/>
<path d="M9.47185 4.6123C6.95878 4.6123 4.9198 6.65115 4.9198 9.16435C4.9198 11.6776 6.95878 13.7164 9.47185 13.7164C11.9851 13.7164 14.0239 11.6776 14.0239 9.16435C14.0239 6.65115 11.9851 4.6123 9.47185 4.6123ZM9.47185 12.1172C7.8415 12.1172 6.51905 10.7948 6.51905 9.16435C6.51905 7.53387 7.8415 6.21155 9.47185 6.21155C11.1023 6.21155 12.4247 7.53387 12.4247 9.16435C12.4247 10.7948 11.1023 12.1172 9.47185 12.1172Z" fill="white"/>
<path d="M15.2668 4.43232C15.2668 5.01918 14.7909 5.49502 14.2039 5.49502C13.6171 5.49502 13.1412 5.01918 13.1412 4.43232C13.1412 3.84533 13.6171 3.36963 14.2039 3.36963C14.7909 3.36963 15.2668 3.84533 15.2668 4.43232Z" fill="white"/>
</svg>
