<svg width="23" height="14" viewBox="0 0 23 14" fill="none" xmlns="http://www.w3.org/2000/svg">
<path fill-rule="evenodd" clip-rule="evenodd" d="M3.51135 0.370117H1.09052C0.398842 0.370117 0.260498 0.69568 0.260498 1.05457C0.260498 1.69567 1.08122 4.87516 4.08192 9.08031C6.08239 11.9521 8.90084 13.5088 11.4656 13.5088C13.0044 13.5088 13.1948 13.163 13.1948 12.5675V10.397C13.1948 9.7055 13.3405 9.56747 13.8278 9.56747C14.1869 9.56747 14.8024 9.74699 16.2387 11.1316C17.8801 12.7726 18.1507 13.5088 19.0739 13.5088H21.4948C22.1865 13.5088 22.5323 13.163 22.3328 12.4807C22.1145 11.8007 21.3308 10.814 20.2909 9.64444C19.7266 8.97775 18.8803 8.25983 18.6238 7.9008C18.2648 7.43928 18.3673 7.23411 18.6238 6.82391C18.6238 6.82391 21.5732 2.67001 21.881 1.25981C22.0349 0.746921 21.881 0.370117 21.1489 0.370117H18.7281C18.1126 0.370117 17.8288 0.69568 17.6749 1.05457C17.6749 1.05457 16.4438 4.05462 14.6998 6.00336C14.1356 6.56743 13.8791 6.74694 13.5713 6.74694C13.4174 6.74694 13.1947 6.56743 13.1947 6.05467V1.25981C13.1947 0.64437 13.0161 0.370117 12.5031 0.370117H8.69885C8.31424 0.370117 8.08286 0.65571 8.08286 0.926437C8.08286 1.50979 8.95485 1.64436 9.04475 3.28538V6.84956C9.04475 7.63097 8.90354 7.77266 8.59582 7.77266C7.77513 7.77266 5.77882 4.7592 4.59481 1.31105C4.36281 0.640844 4.13005 0.370117 3.51135 0.370117Z" fill="white"/>
</svg>
